<?xml version="1.0" encoding="UTF-8" standalone="no"?>
<!-- Created with Inkscape (http://www.inkscape.org/) -->

<svg
   version="1.1"
   id="svg1"
   width="1024"
   height="1024"
   viewBox="0 0 1024 1024"
   sodipodi:docname="lockstrom-logo.svg"
   inkscape:version="1.4.2 (f4327f4, 2025-05-13)"
   xmlns:inkscape="http://www.inkscape.org/namespaces/inkscape"
   xmlns:sodipodi="http://sodipodi.sourceforge.net/DTD/sodipodi-0.dtd"
   xmlns="http://www.w3.org/2000/svg"
   xmlns:svg="http://www.w3.org/2000/svg">
  <defs
     id="defs1" />
  <sodipodi:namedview
     id="namedview1"
     pagecolor="#505050"
     bordercolor="#eeeeee"
     borderopacity="1"
     inkscape:showpageshadow="0"
     inkscape:pageopacity="0"
     inkscape:pagecheckerboard="0"
     inkscape:deskcolor="#505050"
     inkscape:zoom="1.1396484"
     inkscape:cx="402.31705"
     inkscape:cy="607.64353"
     inkscape:window-width="2560"
     inkscape:window-height="1369"
     inkscape:window-x="3832"
     inkscape:window-y="440"
     inkscape:window-maximized="1"
     inkscape:current-layer="g1" />
  <g
     inkscape:groupmode="layer"
     inkscape:label="Image"
     id="g1">
    <path
       style="fill:#000000"
       d="m 300.43919,472.15921 0.25214,-230.25 h 40.5 40.5 v 188.27243 188.27242 l 90.65855,-0.27698 146.50001,-0.12186 8,-2.4215 c 19.41506,-5.87668 34.78151,-16.69561 41.31684,-30.22451 10.9351,-22.63693 7.24275,-46.60502 -9.55012,-61.99264 -12.31232,-11.28201 -26.96759,-17.105 -70.50986,-28.01578 -45.77015,-11.46903 -59.3789,-16.01576 -76.35988,-25.51206 -27.21018,-15.2168 -48.17254,-41.77817 -55.48432,-70.30408 -4.53533,-17.69397 -4.88833,-39.32705 -0.93158,-57.09054 5.14131,-23.08146 15.81641,-42.1 33.44497,-59.5849 9.82134,-9.7413 17.57797,-15.62536 30.07394,-22.81365 26.42798,-15.20263 64.54533,-22.75639 99.50001,-19.71804 33.01839,2.87004 59.353,11.77075 84.67336,28.61833 16.49132,10.97295 35.16923,32.18749 44.27389,50.28671 1.76333,3.50533 2.83407,6.71011 2.3794,7.12172 -1.53868,1.39298 -59.9235,32.00493 -61.04158,32.00493 -0.61024,0 -3.12384,-2.8125 -5.5858,-6.25 -9.58377,-13.38134 -24.62011,-25.31451 -39.72399,-31.52584 -17.70347,-7.28038 -45.0774,-9.42847 -66.3182,-5.20413 -29.10343,5.78804 -46.65709,24.39298 -46.65709,49.45138 0,13.20735 3.94442,23.24858 12.9301,32.91593 11.2118,12.06236 21.08873,15.93692 77.06991,30.23331 50.98987,13.02171 68.72672,20.02227 89,35.12739 34.56568,25.75404 50.24771,66.15372 43.44991,111.93461 -3.93973,26.53271 -13.56884,48.19175 -30.56833,68.75827 -21.40989,25.90236 -50.50539,43.79036 -85.68295,52.67813 -23.69523,5.98671 -48.53507,5.88095 -158.6032,5.88095 H 300.18705 Z"
       id="path1"
       sodipodi:nodetypes="ccccccccssssssssssssssssssssssssscc" />
  </g>
</svg>
