<?xml version="1.0" encoding="UTF-8" standalone="no"?>
<!-- Created with Inkscape (http://www.inkscape.org/) -->

<svg
   version="1.1"
   id="svg1"
   width="1024"
   height="1024"
   viewBox="0 0 1024 1024"
   sodipodi:docname="favicon.svg"
   inkscape:version="1.4.2 (f4327f4, 2025-05-13)"
   inkscape:export-filename="lockstrom-logo.png"
   inkscape:export-xdpi="48"
   inkscape:export-ydpi="48"
   xmlns:inkscape="http://www.inkscape.org/namespaces/inkscape"
   xmlns:sodipodi="http://sodipodi.sourceforge.net/DTD/sodipodi-0.dtd"
   xmlns="http://www.w3.org/2000/svg"
   xmlns:svg="http://www.w3.org/2000/svg">
  <defs
     id="defs1" />
  <sodipodi:namedview
     id="namedview1"
     pagecolor="#505050"
     bordercolor="#eeeeee"
     borderopacity="1"
     inkscape:showpageshadow="0"
     inkscape:pageopacity="0"
     inkscape:pagecheckerboard="0"
     inkscape:deskcolor="#505050"
     inkscape:zoom="0.80585314"
     inkscape:cx="336.91002"
     inkscape:cy="566.48039"
     inkscape:window-width="2560"
     inkscape:window-height="1369"
     inkscape:window-x="3832"
     inkscape:window-y="440"
     inkscape:window-maximized="1"
     inkscape:current-layer="g1" />
  <g
     inkscape:groupmode="layer"
     inkscape:label="Image"
     id="g1">
    <path
       style="fill:#000000;stroke-width:1.74853"
       d="m 106.03007,513.6649 0.46277,-383.5688 h 74.32892 74.32893 v 313.63922 313.63922 l 166.38404,-0.46142 268.86888,-0.20301 14.68228,-4.03392 c 35.63208,-9.78985 63.83388,-27.81288 75.82805,-50.35041 20.06899,-37.71039 13.29248,-77.63835 -17.52717,-103.27227 -22.59658,-18.79448 -49.49315,-28.49488 -129.40549,-46.67094 -84.00117,-19.10601 -108.97704,-26.68032 -140.14195,-42.50001 -49.93836,-25.34936 -88.4102,-69.59741 -101.8294,-117.11815 -8.3236,-29.47602 -8.97146,-65.51413 -1.70972,-95.10596 9.43576,-38.45094 29.02759,-70.13354 61.38098,-99.26129 18.02493,-16.22782 32.26053,-26.02996 55.19416,-38.00479 48.50281,-25.32575 118.45892,-37.90941 182.61061,-32.84788 60.59808,4.78113 108.92951,19.60864 155.39953,47.67469 30.26623,18.27961 64.54546,53.6205 81.25507,83.77161 3.23625,5.83945 5.20137,11.17823 4.36692,11.86393 -2.82402,2.32054 -109.97658,53.31637 -112.02855,53.31637 -1.11997,0 -5.73315,-4.68528 -10.25153,-10.41175 -17.58893,-22.29171 -45.18485,-42.17094 -72.90473,-52.51827 -32.49087,-12.12823 -82.72977,-15.70669 -121.71264,-8.66945 -53.41301,9.64218 -85.62893,40.63577 -85.62893,82.38005 0,22.00186 7.23914,38.72934 23.73037,54.83399 20.57684,20.09444 38.7038,26.54898 141.44506,50.36506 93.58081,21.69259 126.13294,33.35469 163.34013,58.518 63.43785,42.90313 92.21873,110.20415 79.74292,186.46961 -7.2306,44.2003 -24.90268,80.28166 -56.10158,114.54301 -39.2932,43.1502 -92.69165,72.94947 -157.25241,87.75537 -43.48745,9.97314 -89.07556,9.79701 -291.08166,9.79701 h -326.2366 z"
       id="path1"
       sodipodi:nodetypes="ccccccccssssssssssssssssssssssssscc" />
  </g>
</svg>
